<svg xmlns="http://www.w3.org/2000/svg" viewBox="0 0 380 80">
  <defs>
    <style>
      .eu-text { font-family: Arial, Helvetica, sans-serif; }
    </style>
  </defs>
  <!-- EU Flag -->
  <rect x="0" y="5" width="70" height="70" rx="4" fill="#003399"/>
  <!-- Circle of 12 stars -->
  <g transform="translate(35, 40)">
    <g fill="#FFCC00">
      <polygon points="0,-25 1.8,-23.2 3.1,-24.5 1.5,-22.5 3.5,-22.5 1.5,-21.5 2.9,-19.5 0.9,-21 0,-19.2 -0.9,-21 -2.9,-19.5 -1.5,-21.5 -3.5,-22.5 -1.5,-22.5 -3.1,-24.5 -1.8,-23.2" transform="rotate(0)"/>
      <polygon points="0,-25 1.8,-23.2 3.1,-24.5 1.5,-22.5 3.5,-22.5 1.5,-21.5 2.9,-19.5 0.9,-21 0,-19.2 -0.9,-21 -2.9,-19.5 -1.5,-21.5 -3.5,-22.5 -1.5,-22.5 -3.1,-24.5 -1.8,-23.2" transform="rotate(30)"/>
      <polygon points="0,-25 1.8,-23.2 3.1,-24.5 1.5,-22.5 3.5,-22.5 1.5,-21.5 2.9,-19.5 0.9,-21 0,-19.2 -0.9,-21 -2.9,-19.5 -1.5,-21.5 -3.5,-22.5 -1.5,-22.5 -3.1,-24.5 -1.8,-23.2" transform="rotate(60)"/>
      <polygon points="0,-25 1.8,-23.2 3.1,-24.5 1.5,-22.5 3.5,-22.5 1.5,-21.5 2.9,-19.5 0.9,-21 0,-19.2 -0.9,-21 -2.9,-19.5 -1.5,-21.5 -3.5,-22.5 -1.5,-22.5 -3.1,-24.5 -1.8,-23.2" transform="rotate(90)"/>
      <polygon points="0,-25 1.8,-23.2 3.1,-24.5 1.5,-22.5 3.5,-22.5 1.5,-21.5 2.9,-19.5 0.9,-21 0,-19.2 -0.9,-21 -2.9,-19.5 -1.5,-21.5 -3.5,-22.5 -1.5,-22.5 -3.1,-24.5 -1.8,-23.2" transform="rotate(120)"/>
      <polygon points="0,-25 1.8,-23.2 3.1,-24.5 1.5,-22.5 3.5,-22.5 1.5,-21.5 2.9,-19.5 0.9,-21 0,-19.2 -0.9,-21 -2.9,-19.5 -1.5,-21.5 -3.5,-22.5 -1.5,-22.5 -3.1,-24.5 -1.8,-23.2" transform="rotate(150)"/>
      <polygon points="0,-25 1.8,-23.2 3.1,-24.5 1.5,-22.5 3.5,-22.5 1.5,-21.5 2.9,-19.5 0.9,-21 0,-19.2 -0.9,-21 -2.9,-19.5 -1.5,-21.5 -3.5,-22.5 -1.5,-22.5 -3.1,-24.5 -1.8,-23.2" transform="rotate(180)"/>
      <polygon points="0,-25 1.8,-23.2 3.1,-24.5 1.5,-22.5 3.5,-22.5 1.5,-21.5 2.9,-19.5 0.9,-21 0,-19.2 -0.9,-21 -2.9,-19.5 -1.5,-21.5 -3.5,-22.5 -1.5,-22.5 -3.1,-24.5 -1.8,-23.2" transform="rotate(210)"/>
      <polygon points="0,-25 1.8,-23.2 3.1,-24.5 1.5,-22.5 3.5,-22.5 1.5,-21.5 2.9,-19.5 0.9,-21 0,-19.2 -0.9,-21 -2.9,-19.5 -1.5,-21.5 -3.5,-22.5 -1.5,-22.5 -3.1,-24.5 -1.8,-23.2" transform="rotate(240)"/>
      <polygon points="0,-25 1.8,-23.2 3.1,-24.5 1.5,-22.5 3.5,-22.5 1.5,-21.5 2.9,-19.5 0.9,-21 0,-19.2 -0.9,-21 -2.9,-19.5 -1.5,-21.5 -3.5,-22.5 -1.5,-22.5 -3.1,-24.5 -1.8,-23.2" transform="rotate(270)"/>
      <polygon points="0,-25 1.8,-23.2 3.1,-24.5 1.5,-22.5 3.5,-22.5 1.5,-21.5 2.9,-19.5 0.9,-21 0,-19.2 -0.9,-21 -2.9,-19.5 -1.5,-21.5 -3.5,-22.5 -1.5,-22.5 -3.1,-24.5 -1.8,-23.2" transform="rotate(300)"/>
      <polygon points="0,-25 1.8,-23.2 3.1,-24.5 1.5,-22.5 3.5,-22.5 1.5,-21.5 2.9,-19.5 0.9,-21 0,-19.2 -0.9,-21 -2.9,-19.5 -1.5,-21.5 -3.5,-22.5 -1.5,-22.5 -3.1,-24.5 -1.8,-23.2" transform="rotate(330)"/>
    </g>
  </g>
  <!-- Text -->
  <text x="82" y="30" class="eu-text" font-size="13" font-weight="700" fill="#1a1a1a">Finanțat de</text>
  <text x="82" y="48" class="eu-text" font-size="13" font-weight="700" fill="#1a1a1a">Uniunea Europeană</text>
  <text x="82" y="68" class="eu-text" font-size="14" font-weight="800" fill="#003399">NextGenerationEU</text>
</svg>